<svg xmlns="http://www.w3.org/2000/svg" viewBox="0 0 340.24 139.52"><defs><style>.cls-1{fill:#fff;}</style></defs><g id="Layer_2" data-name="Layer 2"><g id="Layer_1-2" data-name="Layer 1"><path class="cls-1" d="M62,62.63l-.09-41.52L41.33,55.47H36.14L15.57,21.65v41H4.47V0h9.58L38.92,41.51,63.34,0h9.58L73,62.63Z"/><path class="cls-1" d="M126.86,48.13H95.55l-6.17,14.5h-12L105.57,0H117l28.27,62.63H133.13ZM123,39,111.21,11.63,99.49,39Z"/><path class="cls-1" d="M205.23,0V62.63h-9.57L161.13,20.22V62.63H149.59V0h9.57l34.53,42.41V0Z"/><path class="cls-1" d="M267.86,0V62.63h-9.57L223.75,20.22V62.63H212.21V0h9.57l34.54,42.41V0Z"/><path class="cls-1" d="M308,40.53v22.1H296.4V40.71L271.8,0h12.43l18.34,30.51L321.09,0h11.45Z"/><path class="cls-1" d="M47.24,106.6h11v25A35.06,35.06,0,0,1,47,137.46a43.3,43.3,0,0,1-13.24,2.06,35.77,35.77,0,0,1-17.27-4.16,30.88,30.88,0,0,1-12.08-11.5,33.46,33.46,0,0,1,0-33.1A30.86,30.86,0,0,1,16.51,79.27a36.09,36.09,0,0,1,17.4-4.17,37.94,37.94,0,0,1,14.31,2.6,28.11,28.11,0,0,1,10.83,7.6l-7.34,7.16A23.54,23.54,0,0,0,34.44,85.3a24.38,24.38,0,0,0-11.76,2.78,20.22,20.22,0,0,0-8,7.78,22.38,22.38,0,0,0-2.91,11.45,22,22,0,0,0,2.91,11.28,20.85,20.85,0,0,0,8,7.87,23.57,23.57,0,0,0,11.67,2.86,25.17,25.17,0,0,0,12.89-3.22Z"/><path class="cls-1" d="M110.49,124.13H79.18L73,138.63H61L89.2,76h11.45l28.27,62.63H116.75ZM106.64,115,94.83,87.63,83.11,115Z"/><path class="cls-1" d="M174.19,138.63,161.4,120.29a23.9,23.9,0,0,1-2.42.09H144.84v18.25H133.21V76H159a34.66,34.66,0,0,1,14.18,2.68,20.63,20.63,0,0,1,9.26,7.7,21.51,21.51,0,0,1,3.22,11.9,21.24,21.24,0,0,1-3.44,12.16,20.55,20.55,0,0,1-9.89,7.61l14.4,20.58ZM170,89.06q-3.93-3.23-11.54-3.22h-13.6v25h13.6q7.6,0,11.54-3.26t3.94-9.26Q173.92,92.28,170,89.06Z"/><path class="cls-1" d="M206.8,135.36a30.57,30.57,0,0,1-12-11.5,33.59,33.59,0,0,1,0-33.1,31,31,0,0,1,12-11.49A35.2,35.2,0,0,1,224,75.1a35.76,35.76,0,0,1,14,2.69,28.64,28.64,0,0,1,10.73,7.78l-7.51,7.07a21.93,21.93,0,0,0-16.73-7.34A23.43,23.43,0,0,0,213,88.12a20.34,20.34,0,0,0-8,7.83,24,24,0,0,0,0,22.73,20.32,20.32,0,0,0,8,7.82,23.43,23.43,0,0,0,11.54,2.82,21.8,21.8,0,0,0,16.73-7.42l7.51,7.15A28.53,28.53,0,0,1,238,136.84a36,36,0,0,1-14.09,2.68A35.3,35.3,0,0,1,206.8,135.36Z"/><path class="cls-1" d="M256.32,76H268v62.63H256.32Z"/><path class="cls-1" d="M321.81,124.13H290.49l-6.17,14.5h-12L300.51,76H312l28.28,62.63H328.07ZM318,115,306.15,87.63,294.43,115Z"/></g></g></svg>